<svg xmlns="http://www.w3.org/2000/svg" width="36.311" height="20.361" viewBox="0 0 36.311 20.361">
    <g>
        <g>
            <g>
                <path fill="#2bd2d6" d="M13.454 148.707a3.033 3.033 0 1 0 3.031 3.035 3.032 3.032 0 0 0-3.031-3.035zm0 4.551a1.515 1.515 0 1 1 1.515-1.515 1.517 1.517 0 0 1-1.515 1.515zm22.857-6.793v3.235a1.462 1.462 0 0 1-1.462 1.462h-1.563a4.011 4.011 0 0 0-7.937 0h-7.928a4.008 4.008 0 0 0-7.932 0H7.531a1.462 1.462 0 0 1-1.462-1.462v-3.236zm-6.993 2.242a3.033 3.033 0 1 0 3.031 3.035 3.036 3.036 0 0 0-3.03-3.035zm0 4.551a1.515 1.515 0 1 1 1.515-1.515 1.517 1.517 0 0 1-1.514 1.515zm6.417-10.052l-5.744-5.681a1.953 1.953 0 0 0-1.369-.565h-2.9v-1.087a1.46 1.46 0 0 0-1.462-1.462H7.53a1.463 1.463 0 0 0-1.462 1.462v.229l-5.932.684 10.51 1.369L0 139.213l10.609 1.508-10.609.92 6.068 1.145v2.872H36.31v-1.068a1.958 1.958 0 0 0-.575-1.383zm-2.5.19h-5.563a.229.229 0 0 1-.229-.229v-4.293a.229.229 0 0 1 .229-.229h1.057a.247.247 0 0 1 .161.063l4.5 4.293a.229.229 0 0 1-.159.399z" transform="translate(-977 -40.139) translate(977 -94.273) translate(0 134.412) translate(0 -134.412)"/>
            </g>
        </g>
    </g>
</svg>
