<svg xmlns="http://www.w3.org/2000/svg" width="1365" height="400" viewBox="0 0 1365 400">
    <defs>
        <linearGradient id="linear-gradient" x1=".405" x2=".531" y1="-.38" y2="1.269" gradientUnits="objectBoundingBox">
            <stop offset="0" stop-color="#19d0cc"/>
            <stop offset=".231" stop-color="#48e1df"/>
            <stop offset="1" stop-color="#0ec1ee"/>
        </linearGradient>
        <clipPath id="clip-path">
            <path id="Path_1353" fill="url(#linear-gradient)" d="M0 0h1365v400H0z" transform="translate(1 1091)"/>
        </clipPath>
        <style>
            .cls-2,.cls-5{fill:#fff}.cls-5{opacity:.34}
        </style>
    </defs>
    <g id="Group_146" transform="translate(-1 -1091)">
        <g id="Group_32" transform="translate(-270.976 971.439)">
            <path id="Path_87" d="M348.746 144.061a13.809 13.809 0 0 0-13.809 13.809c0 7.625 13.9 21.972 13.809 21.972s13.808-14.346 13.808-21.972a13.808 13.808 0 0 0-13.808-13.809zm.086 19.453a5.9 5.9 0 1 1 5.906-5.9 5.905 5.905 0 0 1-5.906 5.9z" class="cls-2" transform="translate(5.325)"/>
        </g>
        <g id="Group_33" transform="translate(-126.879 1246.556)">
            <path id="Path_87-2" d="M348.746 144.061a13.809 13.809 0 0 0-13.809 13.809c0 7.625 13.9 21.972 13.809 21.972s13.808-14.346 13.808-21.972a13.808 13.808 0 0 0-13.808-13.809zm.086 19.453a5.9 5.9 0 1 1 5.906-5.9 5.905 5.905 0 0 1-5.906 5.9z" class="cls-2" transform="translate(5.325)"/>
        </g>
        <g id="Group_34" transform="translate(886.739 961.556)">
            <path id="Path_87-3" fill="#f8f8f8" d="M348.746 144.061a13.809 13.809 0 0 0-13.809 13.809c0 7.625 13.9 21.972 13.809 21.972s13.808-14.346 13.808-21.972a13.808 13.808 0 0 0-13.808-13.809zm.086 19.453a5.9 5.9 0 1 1 5.906-5.9 5.905 5.905 0 0 1-5.906 5.9z" transform="translate(5.325)"/>
        </g>
        <g id="Mask_Group_6" clip-path="url(#clip-path)">
            <path id="Path_88" d="M692.975 460.979l-3.02-5.1-53.791 31.878c-7.806-6.9-36.381-32.148-38.825-33.975-2.525-1.891-66.421-44.1-76.771-50.936 20.082-29.725 21.028-66.982 21.063-69.034l.009-.409-.1-.4c-.518-1.964-12.889-48.318-30.661-68.333-4.625-5.21-5.443-17.537-2.361-34.836l47.1 6.692 130.17 37.706 2.885-9.956-130.523-37.804-47.519-6.772c7.028-29.582 21.007-59.363 25.306-61.5 9.858-4.276 71.574-40.95 74.2-42.509l-3.029-5.092c-.638.379-64.013 38.038-73.526 42.164-8.069 3.5-22.453 39.067-28.841 66.093l-8.81-1.255c6.987-29.757 21.108-59.887 25.435-62.036 9.856-4.276 71.574-40.947 74.2-42.507l-3.027-5.092c-.638.379-64.013 38.038-73.528 42.164-8.123 3.526-22.641 39.54-28.963 66.631l-29.927-4.261-48 17.006-48.181-2.065-28.5-19.248c-17-11.46-36.509-24.638-55.832-37.736l17.692-12.245 72.416-109.266-2.673-22.479-10.295 1.225 2.226 18.7-69.208 104.429-19.358 13.392c-45.349-30.768-87.323-59.493-90.617-62.477a4.407 4.407 0 0 1 .735.938l-8.9 5.312c.921 1.542 1.649 2.763 80.41 56.276 3.618 2.459 7.238 4.916 10.828 7.352L208.625 241.6l-60.978 37.458c-8.018-7.45-15.571-14.326-22.284-20.437-3.211-2.922-6.287-5.724-9.119-8.324l56.713-49.179.291-.253 26.405-38.848-20.823-15.587-3.549 4.742 16.292 12.19-12.467 18.345-12.126-15.881-4.708 3.594 13.328 17.452-6.81 10.018-2.069 1.8-16.9-28.194-5.081 3.046 17.436 29.087-50.309 43.621a124.374 124.374 0 0 1-10.067-10.012c-10.576-13.474-33.057-53.044-33.284-53.438l-11.591 6.576c.94 1.66 23.2 40.84 34.391 55.1 3.237 4.126 11.925 12.034 25.077 24.006 5.739 5.222 12.342 11.237 19.454 17.828l-58.079 35.665-9.222 11.711c-18.486-30.012-31.775-51.195-33.015-52.122l-3.547 4.745a2.239 2.239 0 0 1-.345-.313c1.619 1.906 15.125 23.605 32.994 52.66l-23.908 30.361-21.151 9.174 2.358 5.434 11.07-4.8-43.912 55.766L-2.765 441l55.807-70.872 23-9.978 1.277-.829c16.8 27.408 35.582 58.21 51.516 84.422l-26.681 6.921L-15.6 532.389l5.91 8.517 43.5-30.192 31.312 53.178 16.5 32.034-58.452 10.2c-2.011-5-7.127-17.638-12.518-30.205C-3.9 541.989-6.091 541.593-8.206 541.212l-1.052 5.831a1.973 1.973 0 0 1-.893-.377c3.076 2.744 16.053 32.306 27.358 60.5l-39.611 6.91 1.017 5.837 40.309-7.032L24.037 641l31.147 23.3-27.977 105.79 5.726 1.514 27.636-104.491 80.295 31.9-2.046 11.321-72.774 153.509 5.353 2.538 73.11-154.219 1.973-10.918 38.983 15.487c-31.912 49.483-77.724 130.547-80.327 135.159l5.158 2.911c.842-1.491 82.576-146.124 104.059-168.367-10.241 18.807-17.991 34.251-22.369 45.608-31.045 49.52-69.884 118.245-72.275 122.48l5.16 2.911c.531-.94 33.287-58.906 62.783-107.137-.514 5.576-1.178 11.349-1.834 16.974-2.971 25.477-5.775 49.541 3.946 63.548 10.871 15.667 67.888 78.348 70.308 81.008l9.858-8.971c-.587-.645-58.84-64.683-69.216-79.635-6.85-9.868-4.209-32.51-1.658-54.406.814-6.989 1.658-14.219 2.206-21.138.675-8.538 11.648-30.773 25.565-56.28a37.962 37.962 0 0 1 3.464-3.663c13.788-12.244 65.842-59.189 103.3-95.216a67.092 67.092 0 0 1 3.995 11.334c1.469 7.713-8.718 51.073-16.9 85.911-17.117 72.847-24.571 108.293-19.006 118.579 1.8 3.322 6.413 10.98 12.672 21.144l-47.616 50.182 4.3 4.078 46.53-49.045c12.76 20.628 30.691 49.128 46.009 73.378-3.712 4.061-6.064 6.57-6.666 7.084.051-.043.1-.073.129-.1l3.378 4.867c.486-.339 2.772-2.735 6.42-6.694 14.54 23 26.056 41.127 27.3 43.087l11.248-7.148c-.326-.512-13.191-20.759-29.239-46.161 20.739-22.92 57.67-64.461 85-95.27l59.444 53.268c-19.349 22.4-49.274 56.445-52.744 58.776a1.941 1.941 0 0 1 .523-.227l1.664 5.685c1.315-.386 2.808-.823 30.346-32.06 10.3-11.683 20.459-23.4 24.623-28.222l74.817 67.046 3.954-4.413-44.28-39.679 44.765-44.143 25.82 24.2 6.075-6.484-65.634-61.51-.2-.186-38.831-28.324 20.739-21.016 72.148 70.058 4.128-4.25-76.365-74.152-25.488 25.831-.021-.017-40.719-46.954 28.731-17.747 31.242 1.15 18.3-9.014h.006l.009-.013 18.865-9.294L638.389 721l3.162-5.008-58.133-36.717-13.44 6.625 60.937-99.605c12.064 31.357 23.71 60.9 23.835 61.218l5.509-2.174c-.133-.341-13.561-34.4-26.514-68.2-18.55-48.4-23.231-62.58-24.291-66.658l24.631-14.6 27.27 89.413 5.666-1.729-27.692-90.793zm-62.165 29.955l-61.2 36.269-25.41-33.061 32.572-10.817 11.419-28.581c3.194 2.134 5.222 3.5 5.6 3.783 1.75 1.311 22.061 19.184 37.019 32.407zm-47.656-39.546l-10.86 27.183-37.869 12.576 30.051 39.1-7.726 4.58-30.268 17.933-.557.33-10.025 14.488-23.629 8.939-5.237 3.213-38.294-114.336c16.2-15.616 32.54-29.5 46.4-37.919a80.48 80.48 0 0 0 21.96-19.822c15.994 10.567 49.012 32.394 66.054 43.734zM354.73 571.725c8.877-9.009 15.354-16.1 17.908-19.972 8.551-12.951 39.212-50.068 71.392-81.771l37.82 112.924-89.188 54.68zm-206.315 85.489l-43.391-23.82 3.376-8.547 42.4 19.167zm3.985-22.084l-.518 2.877-41.307-18.674 3.7-9.38 39.043 7.054zm-32.49-39.43c13.641.981 28.521 3.074 34.234 5.175l-.516 10.168-37.128-6.709zm18.055-4.1c-6.439-.853-12.8-1.418-16.515-1.711l6.512-36.051 28.284 5.7-1.793 35.262a103.349 103.349 0 0 0-16.487-3.205zm30.059-147.3l80.824-20.96q2.082 4.052 4.091 8.06l-1.457 12.48-46.658 42.571c-15.832-2.313-33.048-5.062-38.623-6.325zm2.585-65.682c-.111-.137-11.218-13.835-22.417-27.253-6.587-7.891-11.921-14.148-15.851-18.593-2.236-2.53-3.926-4.4-5.272-5.781l30.691-19.949c29.785 28.853 62.368 63.625 79.11 93.871q3.605 6.513 7.045 13l-75.34 19.54 2.746-53.95zm278.353-64.776c-6.805-.823-22.5-2.742-26.506-3.337a18.057 18.057 0 0 1-1.394-2.384l31.779-26.146zm-28.262 2.371c2.755.5 23.734 3.042 27.551 3.5l-3.811 31.325-12.74 10.049-11.164-10.957-56.586 27.149-11.216-16.62 7.281-2.318 56.434-46.431c2.286 3.943 3.406 4.153 4.251 4.303zM312.238 409.05l22.77 28.3-7.416 5.85-25.6-27.3zm27.42 24.631L317.5 406.136l44.407-21.3 13.788 20.431zM311.375 402.5l-43.469 29.053q-3.422-6.963-6.983-13.887l71.759-50.625 14.167-4.511 11.7 17.338zM297 419.235l25.923 27.645-35.1 27.684-1.81-3.256c-4.638-11.151-9.881-22.746-15.489-34.38zm29.991 31.983l1.1 1.17.169.182 62.24 47.36c-17.815 20-31.966 37.736-37.377 45.928-2.425 3.674-8.75 10.573-17.462 19.392-14.39-29.592-35.166-67.725-44.929-85.431zm67.474 44.289l-62.224-47.352-.583-.619 70.975-55.98 34.767 60.056c-14.76 13.703-29.706 29.245-42.935 43.895zm-14.112-93.922L367.3 382.242l52.054-24.972 7.658 7.514zm-25.383-52.517l-8.281 2.637-16-23.7c25.3-14.069 52-28.855 74.989-41.549 2.446 6.675 4.47 11.822 6.165 15.819zm-14.163 4.509l-12.792 4.072-71.93 50.745q-3.743-7.062-7.551-13.945c-2.723-4.918-5.822-9.915-9.2-14.956 9.853-5.968 45.722-26.1 86.166-48.6zm-20.463-26.593c-58.564 32.589-77.81 43.636-84.35 47.658-6.623-9.416-14.2-18.949-22.32-28.4l75.25-69.539 33.247 49.261q-.912.513-1.827 1.019zm-62.582 114.2c6.158 12.73 11.67 25.011 16.391 36.462L262.7 499.395l-9.849 54.519-8.9 5.428zm47.607 93.929c7.559 14.414 14.675 28.38 20.3 40.073-20.116 19.724-47.487 45.15-70.692 66.395 2.318-4.016 4.593-7.951 6.795-11.76 25.73-44.5 41.594-72.292 43.421-82.4a45.43 45.43 0 0 0 .176-12.31zm33 35.783c9.789-9.864 16.969-17.653 19.69-21.774 9.47-14.337 46.03-58.289 81.751-91.725l2.14 6.39c-33.33 32.542-65.433 71.337-74.261 84.705-3.2 4.847-13.186 15.311-26.51 28.4q-1.335-2.906-2.805-5.998zm168.076-302.288c15.988 18.008 27.982 60.853 29.25 65.5-.2 5.415-3.331 63.842-43.627 88.3-13.593 8.251-29.513 21.658-45.392 36.818l-2.091-6.24c12.681-11.548 25.1-21.538 35.984-28.146 44.825-27.208 46.442-90.96 46.489-93.661l.006-.409-.1-.4c-.518-1.964-12.891-48.318-30.661-68.333-4.578-5.154-5.43-17.273-2.463-34.288l8.8 1.251c-3.48 19.516-2.216 32.831 3.805 39.608zm-290.783-19.169l55.8-71.994c31.1 21.078 57.87 39.125 58.189 39.339l30.92 20.885 53.121 2.277 47.5-16.828 26.78 3.8c-3.359 19.214-2.056 32.339 3.907 39.054 15.988 18.008 27.984 60.853 29.252 65.5-.2 5.415-3.333 63.842-43.627 88.3-10.8 6.557-23.074 16.372-35.629 27.733l-34.543-59.655 42.691-33.671 9.451-77.666 1.765-1.454 4.023-22.275-10.2-1.842-3.348 18.531L416.67 298.3c-2.163-5.229-4.537-11.391-6.6-17.119l-1.178-3.267-3.04 1.677c-.4.223-38.529 21.268-78.482 43.481l-37.394-55.4-80.19 74.1c-17.237-19.589-36.55-38.662-54.288-55.376zm-130.894 80.4l58.941-36.2q4.746 4.46 9.676 9.179L79.209 351.03q-2.477-4.036-4.875-7.938zm-11.537 25.077l-12.465 5.407 9.65-12.255 3.806 6.2zm9.076 1.167L122 330.28c5.966 5.771 28.759 33.268 43.293 51.18L162.574 435l-27.75 7.2c-17.482-28.77-36.141-59.4-52.517-86.117zm79.716 89.767l-5.473 107.7-30.976-6.236-22.14 4.635 15.442-47.112-16.127-41.961 3.8-2.635zm-64.283 20.5l14.851 38.64-15.851 48.357-27.551 5.771-30.5-51.79zm-25.61 98.2l49.76-10.421-6.486 35.9-27.669 4.826zm-47.372 47.311l57.778-10.081-3.931 25.268-20.8 31.818-28.358-21.219zm38.263 49.854l21.241-32.495 4.438-28.515 24.556-4.286L97.6 636.075l49.706 27.29-5.366 29.7zM158.266 636l1.823-35.8 1.574-.645a5.066 5.066 0 0 0-1.442-1.962l2.159-42.393.09-.454-.066-.013.923-18.15 40.3 6.786.985-5.841-40.982-6.9 2.266-44.512c5.591 1.328 16.8 3.11 39.461 6.4l1.388.2 43.687-39.861L237.449 564l-66.316 100.774L164 701.831l-16.447-6.531zm53.519 44.677c-4.725 4.2-13.049 15.753-23.029 30.993l-19.156-7.613 7.127-37.008 65.69-99.828 15.791-9.635 10.158-56.237 8.692-16.509c11.044 27.958 16.843 50.1 15.018 60.2-1.508 8.339-22.937 45.4-41.843 78.1-9.913 17.145-19.026 32.994-27.045 47.309-4.988 4.499-8.916 8.017-11.403 10.223zm24.4-6.167c2.995-5.336 6.045-10.71 9.091-16.042 24.873-22.611 58.728-53.808 83.071-77.63q1.452 3.1 2.712 5.9c-31.259 30.103-73.837 68.844-94.87 87.767zm77.268 127.59c-.493-1.4-1.506-8.187 4.406-38.527 3.768-19.332 9.247-42.873 14.679-66l37.6 6.792 1.054-5.831-37.3-6.737c11.651-49.6 18.674-80.522 16.783-90.446-.741-3.877-3.258-10.479-6.9-18.724q2.285-2.24 4.451-4.387l42.738 74.2 28.179 5.092 27.866 32.135L323.84 819.483c-5.098-8.307-8.823-14.51-10.387-17.383zm112.53-81.655l55.029 55.955c-6.443 7.277-13.3 15.014-20.352 22.963L401.448 746.3zm-53.114 177.386c-15.648-24.786-33.607-53.348-45.816-73.127l70.315-74.1 59.363 53.2c-30.786 34.688-64.506 72.563-83.862 94.027zm147.7-123.322l44.071 32.141 35.29 33.075-44.859 44.238-90-80.646c9.027-10.179 16.774-18.929 22.2-25.062l1.831-2.069-59.048-60.044 20.846-21.971 69.334 79.956zm-63.283-86.541l22.294-19.861 29.622 31.51-27.23 16.819zm87.32 10.432l-29.43-1.084-35.224-37.469-26.542 23.644-29.6-34.14-27.2-4.914-.987-1.716 99.271-60.862 24.828-9.393 10.34-14.941 29.08-17.233 38.743 88.642-37.85 61.866zm83.606-119.145l.026.064-26.585 43.454-37.379-85.523 39.9-23.648c.234.775.5 1.611.79 2.519 1.18 3.693 3.031 9.033 5.507 15.875 4.156 11.484 10.129 27.385 17.741 47.259zm-20.437-67.783zm-159.737 90.572l-5.021 3.142-23.355-37.327 5.021-3.14zM501.4 393.509l-31-29.265 12.312-32.85 5.546 2.078-10.928 29.166 28.138 26.562z" class="cls-5" transform="rotate(95 593.502 1302.158)"/>
            <path id="Path_18" d="M692.975 460.979l-3.02-5.1-53.791 31.878c-7.806-6.9-36.381-32.148-38.825-33.975-2.525-1.891-66.421-44.1-76.771-50.936 20.082-29.725 21.028-66.982 21.063-69.034l.009-.409-.1-.4c-.518-1.964-12.889-48.318-30.661-68.333-4.625-5.21-5.443-17.537-2.361-34.836l47.1 6.692 130.17 37.706 2.885-9.956-130.523-37.804-47.519-6.772c7.028-29.582 21.007-59.363 25.306-61.5 9.858-4.276 71.574-40.95 74.2-42.509l-3.029-5.092c-.638.379-64.013 38.038-73.526 42.164-8.069 3.5-22.453 39.067-28.841 66.093l-8.81-1.255c6.987-29.757 21.108-59.887 25.435-62.036 9.856-4.276 71.574-40.947 74.2-42.507l-3.027-5.092c-.638.379-64.013 38.038-73.528 42.164-8.123 3.526-22.641 39.54-28.963 66.631l-29.927-4.261-48 17.006-48.181-2.065-28.5-19.248c-17-11.46-36.509-24.638-55.832-37.736l17.692-12.245 72.416-109.266-2.673-22.479-10.295 1.225 2.226 18.7-69.208 104.429-19.358 13.392c-45.349-30.768-87.323-59.493-90.617-62.477a4.407 4.407 0 0 1 .735.938l-8.9 5.312c.921 1.542 1.649 2.763 80.41 56.276 3.618 2.459 7.238 4.916 10.828 7.352L208.625 241.6l-60.978 37.458c-8.018-7.45-15.571-14.326-22.284-20.437-3.211-2.922-6.287-5.724-9.119-8.324l56.713-49.179.291-.253 26.405-38.848-20.823-15.587-3.549 4.742 16.292 12.19-12.467 18.345-12.126-15.881-4.708 3.594 13.328 17.452-6.81 10.018-2.069 1.8-16.9-28.194-5.081 3.046 17.436 29.087-50.309 43.621a124.374 124.374 0 0 1-10.067-10.012c-10.576-13.474-33.057-53.044-33.284-53.438l-11.591 6.576c.94 1.66 23.2 40.84 34.391 55.1 3.237 4.126 11.925 12.034 25.077 24.006 5.739 5.222 12.342 11.237 19.454 17.828l-58.079 35.665-9.222 11.711c-18.486-30.012-31.775-51.195-33.015-52.122l-3.547 4.745a2.239 2.239 0 0 1-.345-.313c1.619 1.906 15.125 23.605 32.994 52.66l-23.908 30.361-21.151 9.174 2.358 5.434 11.07-4.8-43.912 55.766L-2.765 441l55.807-70.872 23-9.978 1.277-.829c16.8 27.408 35.582 58.21 51.516 84.422l-26.681 6.921L-15.6 532.389l5.91 8.517 43.5-30.192 31.312 53.178 16.5 32.034-58.452 10.2c-2.011-5-7.127-17.638-12.518-30.205C-3.9 541.989-6.091 541.593-8.206 541.212l-1.052 5.831a1.973 1.973 0 0 1-.893-.377c3.076 2.744 16.053 32.306 27.358 60.5l-39.611 6.91 1.017 5.837 40.309-7.032L24.037 641l31.147 23.3-27.977 105.79 5.726 1.514 27.636-104.491 80.295 31.9-2.046 11.321-72.774 153.509 5.353 2.538 73.11-154.219 1.973-10.918 38.983 15.487c-31.912 49.483-77.724 130.547-80.327 135.159l5.158 2.911c.842-1.491 82.576-146.124 104.059-168.367-10.241 18.807-17.991 34.251-22.369 45.608-31.045 49.52-69.884 118.245-72.275 122.48l5.16 2.911c.531-.94 33.287-58.906 62.783-107.137-.514 5.576-1.178 11.349-1.834 16.974-2.971 25.477-5.775 49.541 3.946 63.548 10.871 15.667 67.888 78.348 70.308 81.008l9.858-8.971c-.587-.645-58.84-64.683-69.216-79.635-6.85-9.868-4.209-32.51-1.658-54.406.814-6.989 1.658-14.219 2.206-21.138.675-8.538 11.648-30.773 25.565-56.28a37.962 37.962 0 0 1 3.464-3.663c13.788-12.244 65.842-59.189 103.3-95.216a67.092 67.092 0 0 1 3.995 11.334c1.469 7.713-8.718 51.073-16.9 85.911-17.117 72.847-24.571 108.293-19.006 118.579 1.8 3.322 6.413 10.98 12.672 21.144l-47.616 50.182 4.3 4.078 46.53-49.045c12.76 20.628 30.691 49.128 46.009 73.378-3.712 4.061-6.064 6.57-6.666 7.084.051-.043.1-.073.129-.1l3.378 4.867c.486-.339 2.772-2.735 6.42-6.694 14.54 23 26.056 41.127 27.3 43.087l11.248-7.148c-.326-.512-13.191-20.759-29.239-46.161 20.739-22.92 57.67-64.461 85-95.27l59.444 53.268c-19.349 22.4-49.274 56.445-52.744 58.776a1.941 1.941 0 0 1 .523-.227l1.664 5.685c1.315-.386 2.808-.823 30.346-32.06 10.3-11.683 20.459-23.4 24.623-28.222l74.817 67.046 3.954-4.413-44.28-39.679 44.765-44.143 25.82 24.2 6.075-6.484-65.634-61.51-.2-.186-38.831-28.324 20.739-21.016 72.148 70.058 4.128-4.25-76.365-74.152-25.488 25.831-.021-.017-40.719-46.954 28.731-17.747 31.242 1.15 18.3-9.014h.006l.009-.013 18.865-9.294L638.389 721l3.162-5.008-58.133-36.717-13.44 6.625 60.937-99.605c12.064 31.357 23.71 60.9 23.835 61.218l5.509-2.174c-.133-.341-13.561-34.4-26.514-68.2-18.55-48.4-23.231-62.58-24.291-66.658l24.631-14.6 27.27 89.413 5.666-1.729-27.692-90.793zm-62.165 29.955l-61.2 36.269-25.41-33.061 32.572-10.817 11.419-28.581c3.194 2.134 5.222 3.5 5.6 3.783 1.75 1.311 22.061 19.184 37.019 32.407zm-47.656-39.546l-10.86 27.183-37.869 12.576 30.051 39.1-7.726 4.58-30.268 17.933-.557.33-10.025 14.488-23.629 8.939-5.237 3.213-38.294-114.336c16.2-15.616 32.54-29.5 46.4-37.919a80.48 80.48 0 0 0 21.96-19.822c15.994 10.567 49.012 32.394 66.054 43.734zM354.73 571.725c8.877-9.009 15.354-16.1 17.908-19.972 8.551-12.951 39.212-50.068 71.392-81.771l37.82 112.924-89.188 54.68zm-206.315 85.489l-43.391-23.82 3.376-8.547 42.4 19.167zm3.985-22.084l-.518 2.877-41.307-18.674 3.7-9.38 39.043 7.054zm-32.49-39.43c13.641.981 28.521 3.074 34.234 5.175l-.516 10.168-37.128-6.709zm18.055-4.1c-6.439-.853-12.8-1.418-16.515-1.711l6.512-36.051 28.284 5.7-1.793 35.262a103.349 103.349 0 0 0-16.487-3.205zm30.059-147.3l80.824-20.96q2.082 4.052 4.091 8.06l-1.457 12.48-46.658 42.571c-15.832-2.313-33.048-5.062-38.623-6.325zm2.585-65.682c-.111-.137-11.218-13.835-22.417-27.253-6.587-7.891-11.921-14.148-15.851-18.593-2.236-2.53-3.926-4.4-5.272-5.781l30.691-19.949c29.785 28.853 62.368 63.625 79.11 93.871q3.605 6.513 7.045 13l-75.34 19.54 2.746-53.95zm278.353-64.776c-6.805-.823-22.5-2.742-26.506-3.337a18.057 18.057 0 0 1-1.394-2.384l31.779-26.146zm-28.262 2.371c2.755.5 23.734 3.042 27.551 3.5l-3.811 31.325-12.74 10.049-11.164-10.957-56.586 27.149-11.216-16.62 7.281-2.318 56.434-46.431c2.286 3.943 3.406 4.153 4.251 4.303zM312.238 409.05l22.77 28.3-7.416 5.85-25.6-27.3zm27.42 24.631L317.5 406.136l44.407-21.3 13.788 20.431zM311.375 402.5l-43.469 29.053q-3.422-6.963-6.983-13.887l71.759-50.625 14.167-4.511 11.7 17.338zM297 419.235l25.923 27.645-35.1 27.684-1.81-3.256c-4.638-11.151-9.881-22.746-15.489-34.38zm29.991 31.983l1.1 1.17.169.182 62.24 47.36c-17.815 20-31.966 37.736-37.377 45.928-2.425 3.674-8.75 10.573-17.462 19.392-14.39-29.592-35.166-67.725-44.929-85.431zm67.474 44.289l-62.224-47.352-.583-.619 70.975-55.98 34.767 60.056c-14.76 13.703-29.706 29.245-42.935 43.895zm-14.112-93.922L367.3 382.242l52.054-24.972 7.658 7.514zm-25.383-52.517l-8.281 2.637-16-23.7c25.3-14.069 52-28.855 74.989-41.549 2.446 6.675 4.47 11.822 6.165 15.819zm-14.163 4.509l-12.792 4.072-71.93 50.745q-3.743-7.062-7.551-13.945c-2.723-4.918-5.822-9.915-9.2-14.956 9.853-5.968 45.722-26.1 86.166-48.6zm-20.463-26.593c-58.564 32.589-77.81 43.636-84.35 47.658-6.623-9.416-14.2-18.949-22.32-28.4l75.25-69.539 33.247 49.261q-.912.513-1.827 1.019zm-62.582 114.2c6.158 12.73 11.67 25.011 16.391 36.462L262.7 499.395l-9.849 54.519-8.9 5.428zm47.607 93.929c7.559 14.414 14.675 28.38 20.3 40.073-20.116 19.724-47.487 45.15-70.692 66.395 2.318-4.016 4.593-7.951 6.795-11.76 25.73-44.5 41.594-72.292 43.421-82.4a45.43 45.43 0 0 0 .176-12.31zm33 35.783c9.789-9.864 16.969-17.653 19.69-21.774 9.47-14.337 46.03-58.289 81.751-91.725l2.14 6.39c-33.33 32.542-65.433 71.337-74.261 84.705-3.2 4.847-13.186 15.311-26.51 28.4q-1.335-2.906-2.805-5.998zm168.076-302.288c15.988 18.008 27.982 60.853 29.25 65.5-.2 5.415-3.331 63.842-43.627 88.3-13.593 8.251-29.513 21.658-45.392 36.818l-2.091-6.24c12.681-11.548 25.1-21.538 35.984-28.146 44.825-27.208 46.442-90.96 46.489-93.661l.006-.409-.1-.4c-.518-1.964-12.891-48.318-30.661-68.333-4.578-5.154-5.43-17.273-2.463-34.288l8.8 1.251c-3.48 19.516-2.216 32.831 3.805 39.608zm-290.783-19.169l55.8-71.994c31.1 21.078 57.87 39.125 58.189 39.339l30.92 20.885 53.121 2.277 47.5-16.828 26.78 3.8c-3.359 19.214-2.056 32.339 3.907 39.054 15.988 18.008 27.984 60.853 29.252 65.5-.2 5.415-3.333 63.842-43.627 88.3-10.8 6.557-23.074 16.372-35.629 27.733l-34.543-59.655 42.691-33.671 9.451-77.666 1.765-1.454 4.023-22.275-10.2-1.842-3.348 18.531L416.67 298.3c-2.163-5.229-4.537-11.391-6.6-17.119l-1.178-3.267-3.04 1.677c-.4.223-38.529 21.268-78.482 43.481l-37.394-55.4-80.19 74.1c-17.237-19.589-36.55-38.662-54.288-55.376zm-130.894 80.4l58.941-36.2q4.746 4.46 9.676 9.179L79.209 351.03q-2.477-4.036-4.875-7.938zm-11.537 25.077l-12.465 5.407 9.65-12.255 3.806 6.2zm9.076 1.167L122 330.28c5.966 5.771 28.759 33.268 43.293 51.18L162.574 435l-27.75 7.2c-17.482-28.77-36.141-59.4-52.517-86.117zm79.716 89.767l-5.473 107.7-30.976-6.236-22.14 4.635 15.442-47.112-16.127-41.961 3.8-2.635zm-64.283 20.5l14.851 38.64-15.851 48.357-27.551 5.771-30.5-51.79zm-25.61 98.2l49.76-10.421-6.486 35.9-27.669 4.826zm-47.372 47.311l57.778-10.081-3.931 25.268-20.8 31.818-28.358-21.219zm38.263 49.854l21.241-32.495 4.438-28.515 24.556-4.286L97.6 636.075l49.706 27.29-5.366 29.7zM158.266 636l1.823-35.8 1.574-.645a5.066 5.066 0 0 0-1.442-1.962l2.159-42.393.09-.454-.066-.013.923-18.15 40.3 6.786.985-5.841-40.982-6.9 2.266-44.512c5.591 1.328 16.8 3.11 39.461 6.4l1.388.2 43.687-39.861L237.449 564l-66.316 100.774L164 701.831l-16.447-6.531zm53.519 44.677c-4.725 4.2-13.049 15.753-23.029 30.993l-19.156-7.613 7.127-37.008 65.69-99.828 15.791-9.635 10.158-56.237 8.692-16.509c11.044 27.958 16.843 50.1 15.018 60.2-1.508 8.339-22.937 45.4-41.843 78.1-9.913 17.145-19.026 32.994-27.045 47.309-4.988 4.499-8.916 8.017-11.403 10.223zm24.4-6.167c2.995-5.336 6.045-10.71 9.091-16.042 24.873-22.611 58.728-53.808 83.071-77.63q1.452 3.1 2.712 5.9c-31.259 30.103-73.837 68.844-94.87 87.767zm77.268 127.59c-.493-1.4-1.506-8.187 4.406-38.527 3.768-19.332 9.247-42.873 14.679-66l37.6 6.792 1.054-5.831-37.3-6.737c11.651-49.6 18.674-80.522 16.783-90.446-.741-3.877-3.258-10.479-6.9-18.724q2.285-2.24 4.451-4.387l42.738 74.2 28.179 5.092 27.866 32.135L323.84 819.483c-5.098-8.307-8.823-14.51-10.387-17.383zm112.53-81.655l55.029 55.955c-6.443 7.277-13.3 15.014-20.352 22.963L401.448 746.3zm-53.114 177.386c-15.648-24.786-33.607-53.348-45.816-73.127l70.315-74.1 59.363 53.2c-30.786 34.688-64.506 72.563-83.862 94.027zm147.7-123.322l44.071 32.141 35.29 33.075-44.859 44.238-90-80.646c9.027-10.179 16.774-18.929 22.2-25.062l1.831-2.069-59.048-60.044 20.846-21.971 69.334 79.956zm-63.283-86.541l22.294-19.861 29.622 31.51-27.23 16.819zm87.32 10.432l-29.43-1.084-35.224-37.469-26.542 23.644-29.6-34.14-27.2-4.914-.987-1.716 99.271-60.862 24.828-9.393 10.34-14.941 29.08-17.233 38.743 88.642-37.85 61.866zm83.606-119.145l.026.064-26.585 43.454-37.379-85.523 39.9-23.648c.234.775.5 1.611.79 2.519 1.18 3.693 3.031 9.033 5.507 15.875 4.156 11.484 10.129 27.385 17.741 47.259zm-20.437-67.783zm-159.737 90.572l-5.021 3.142-23.355-37.327 5.021-3.14zM501.4 393.509l-31-29.265 12.312-32.85 5.546 2.078-10.928 29.166 28.138 26.562z" class="cls-5" transform="rotate(-29 2106.065 1342.019)"/>
        </g>
    </g>
</svg>
